<?xml version="1.0" encoding="UTF-8" standalone="no"?>
<svg
   width="48"
   height="48"
   viewBox="0 0 48 48"
   fill="none"
   version="1.1"
   id="svg6"
   sodipodi:docname="icon-symbol_blue (SVG).svg"
   inkscape:version="1.2.2 (b0a8486541, 2022-12-01)"
   xmlns:inkscape="http://www.inkscape.org/namespaces/inkscape"
   xmlns:sodipodi="http://sodipodi.sourceforge.net/DTD/sodipodi-0.dtd"
   xmlns="http://www.w3.org/2000/svg"
   xmlns:svg="http://www.w3.org/2000/svg">
  <defs
     id="defs10" />
  <sodipodi:namedview
     id="namedview8"
     pagecolor="#ffffff"
     bordercolor="#000000"
     borderopacity="0.25"
     inkscape:showpageshadow="2"
     inkscape:pageopacity="0.0"
     inkscape:pagecheckerboard="0"
     inkscape:deskcolor="#d1d1d1"
     showgrid="false"
     inkscape:zoom="16.354167"
     inkscape:cx="17.518471"
     inkscape:cy="22.104459"
     inkscape:window-width="1920"
     inkscape:window-height="1011"
     inkscape:window-x="0"
     inkscape:window-y="0"
     inkscape:window-maximized="1"
     inkscape:current-layer="svg6" />
  <path
     d="M30.5775 23.4342C28.6867 23.3789 26.7848 23.3568 24.8939 23.3458C24.8939 21.4549 24.8829 19.553 24.8276 17.6622L24.7391 14.4334C24.6838 13.3608 24.6507 12.2772 24.5733 11.2046H23.6665C23.5891 12.2772 23.556 13.3608 23.5007 14.4334L23.4122 17.6622C23.3901 18.5468 23.379 19.4425 23.368 20.3271C23.0141 19.5088 22.6714 18.6905 22.3065 17.8833L20.9906 14.942C20.5262 13.969 20.0839 12.9849 19.6084 12.0228L18.768 12.3767C19.1108 13.394 19.4868 14.4002 19.8517 15.4175L21.0017 18.4362C21.3223 19.2655 21.6541 20.0949 21.9858 20.9131C21.3555 20.2939 20.7142 19.6747 20.0728 19.0554L17.7286 16.8329C16.9325 16.1141 16.1474 15.3733 15.3292 14.6656L14.6878 15.3069C15.3955 16.1252 16.1364 16.8992 16.8551 17.7064L19.0777 20.0506C19.6858 20.692 20.305 21.3333 20.9353 21.9636C20.106 21.6319 19.2878 21.3001 18.4584 20.9795L15.4397 19.8295C14.4224 19.4646 13.4162 19.0886 12.3989 18.7458L12.0451 19.5862C13.0071 20.0727 13.9912 20.504 14.9643 20.9684L17.9056 22.2842C18.7128 22.6491 19.531 22.9919 20.3493 23.3458C19.4647 23.3568 18.569 23.3679 17.6844 23.39L14.4556 23.4785C13.383 23.5338 12.2994 23.5669 11.2268 23.6443V24.551C12.2994 24.6284 13.383 24.6616 14.4556 24.7169L17.6844 24.8054C19.5752 24.8607 21.4771 24.8607 23.368 24.8717C23.379 26.7626 23.3901 28.6644 23.4564 30.5553L23.556 33.7841C23.6112 34.8567 23.6444 35.9403 23.7218 37.0129H24.5511C24.6285 35.9403 24.6617 34.8567 24.717 33.7841L24.8165 30.5553C24.8497 29.6486 24.8608 28.7308 24.8718 27.8241C25.2367 28.6644 25.5905 29.4938 25.9665 30.3231L27.2934 33.2644C27.7578 34.2375 28.2001 35.2216 28.6867 36.1836L29.4496 35.8629C29.1068 34.8346 28.7309 33.8283 28.377 32.811L27.2381 29.7923C26.9175 28.9409 26.5857 28.0895 26.2429 27.2491C26.8953 27.8794 27.5477 28.5207 28.2112 29.1399L30.5664 31.3514C31.3626 32.0702 32.1477 32.811 32.9659 33.5077L33.552 32.9216C32.8443 32.1033 32.1145 31.3183 31.3958 30.5221L29.1842 28.1669C28.565 27.5034 27.9237 26.851 27.2934 26.1986C28.1448 26.5303 28.9852 26.8731 29.8366 27.1938L32.8554 28.3327C33.8726 28.6866 34.8789 29.0736 35.9072 29.4053L36.2279 28.6423C35.2659 28.1558 34.2818 27.7135 33.3087 27.2491L30.3674 25.9222C29.5381 25.5462 28.6977 25.1813 27.8684 24.8275C28.7751 24.8164 29.6929 24.8054 30.5996 24.7722L33.8284 24.6727C34.901 24.6174 35.9846 24.5842 37.0572 24.5068V23.6775C35.9846 23.6001 34.901 23.5669 33.8284 23.5116L30.5775 23.4342Z"
     fill="#040531"
     id="path2"
     style="fill:#ffffff;fill-opacity:1" />
  <path
     d="M24.1199 3C12.4763 3 3 12.4763 3 24.1199C3 35.7635 12.4763 45.2398 24.1199 45.2398C35.7635 45.2398 45.2398 35.7635 45.2398 24.1199C45.2509 12.4763 35.7745 3 24.1199 3ZM24.1199 43.2716C13.56 43.2716 4.96824 34.6799 4.96824 24.1199C4.96824 13.56 13.56 4.96824 24.1199 4.96824C34.6799 4.96824 43.2716 13.56 43.2716 24.1199C43.2716 34.6799 34.6799 43.2716 24.1199 43.2716Z"
     fill="#040531"
     id="path4"
     style="fill:#ffffff;fill-opacity:1" />
  <path
     style="fill:#ffffff;stroke-width:0.0611465;fill-opacity:1"
     d="M 22.563057,45.156424 C 16.217709,44.604175 10.751104,41.536881 7.0323066,36.442174 3.0491775,30.985335 1.9606446,23.756719 4.1566193,17.345608 7.4666366,7.6820696 17.204688,1.7512749 27.261831,3.2737717 33.890149,4.277197 39.667213,8.395729 42.797727,14.349481 c 4.300603,8.179081 2.746126,18.160264 -3.850966,24.726769 -3.33185,3.316402 -7.702146,5.430367 -12.378608,5.987684 -0.982511,0.117091 -3.14788,0.167096 -4.005096,0.09249 z m 3.817749,-1.99259 c 4.669695,-0.538287 9.156507,-2.915926 12.216808,-6.473897 2.563154,-2.979976 4.103695,-6.469352 4.579019,-10.371628 0.122616,-1.006635 0.137821,-3.164354 0.02926,-4.152704 C 42.792829,18.404828 41.403009,15.030523 39.050336,12.076433 38.431885,11.299887 36.901206,9.7761435 36.107006,9.146441 31.847215,5.7689476 26.528294,4.350927 21.178641,5.1665488 15.428117,6.0432882 10.386576,9.5268774 7.4313155,14.665634 5.0060716,18.882772 4.3103299,24.100435 5.5365946,28.874951 7.7627892,37.542737 15.713712,43.547849 24.611465,43.281672 c 0.554904,-0.0166 1.351108,-0.06963 1.769341,-0.117838 z"
     id="path1225" />
  <path
     style="fill:#ffffff;stroke-width:0.0611465;fill-opacity:1"
     d="m 23.729691,36.580892 c -0.09322,-1.004725 -0.251244,-5.688656 -0.317698,-9.416561 l -0.04115,-2.30828 -0.893066,-3.06e-4 C 20.131551,24.854887 14.511873,24.702158 12.030573,24.5718 l -0.749044,-0.03935 v -0.417925 c 0,-0.38397 0.01118,-0.420303 0.137579,-0.447187 0.34284,-0.07292 6.230967,-0.277107 8.022421,-0.278204 0.578872,-3.66e-4 0.951675,-0.02292 0.917197,-0.05552 -0.03195,-0.03021 -0.415796,-0.206898 -0.852994,-0.392648 -1.201008,-0.510265 -4.27935,-1.892399 -5.939799,-2.666889 L 12.089829,19.58557 12.24211,19.209346 c 0.08375,-0.206924 0.161856,-0.386258 0.173559,-0.39852 0.04967,-0.05204 4.952117,1.766032 7.388,2.739846 0.601063,0.240292 1.108795,0.42094 1.128295,0.401441 0.0195,-0.0195 -0.377588,-0.45409 -0.882415,-0.965757 -1.244325,-1.261185 -2.985625,-3.10254 -4.088985,-4.323936 -0.501278,-0.554904 -0.980417,-1.084944 -1.064753,-1.177866 l -0.153339,-0.16895 0.297622,-0.302165 0.297622,-0.302166 0.480917,0.43354 c 1.351659,1.218502 2.398383,2.196233 4.191558,3.915276 1.084586,1.039748 1.971975,1.863715 1.971975,1.831037 0,-0.03268 -0.230949,-0.646677 -0.51322,-1.364442 -0.801428,-2.037891 -1.536856,-3.983614 -2.122635,-5.615856 l -0.537635,-1.498089 0.374221,-0.169976 c 0.205822,-0.09349 0.39543,-0.148518 0.421351,-0.122293 0.117392,0.118772 2.91313,6.260228 3.542878,7.782715 0.189217,0.457454 0.241409,0.499243 0.241409,0.193291 0,-1.452953 0.201664,-7.463579 0.282929,-8.432782 l 0.03717,-0.443312 h 0.412954 0.412955 l 0.03841,0.535032 c 0.128553,1.790837 0.2831,7.156907 0.2831,9.829571 v 1.80355 l 1.482803,0.0012 c 1.848347,0.0015 8.056307,0.161321 9.3707,0.241213 0.538089,0.03271 1.054013,0.06033 1.146497,0.06138 0.16567,0.0019 0.168153,0.0077 0.168153,0.392065 v 0.390148 l -0.626752,0.03933 c -1.350007,0.08472 -3.18846,0.156988 -5.810171,0.228397 -1.505657,0.04101 -2.716358,0.09441 -2.690446,0.118674 0.02591,0.02426 0.308515,0.15462 0.628006,0.289687 1.678022,0.709396 7.483735,3.375109 7.598649,3.488946 0.06795,0.06732 -0.20072,0.680149 -0.298188,0.680149 -0.186614,0 -3.971116,-1.382512 -6.891632,-2.517575 -0.868138,-0.337402 -1.595165,-0.596725 -1.615618,-0.576273 -0.02045,0.02045 0.346484,0.429138 0.815413,0.908192 1.713286,1.750277 5.344242,5.683505 5.344242,5.789142 0,0.02191 -0.116943,0.153927 -0.259873,0.293366 L 32.957964,33.4701 31.704461,32.332847 c -1.278048,-1.15952 -2.504225,-2.305827 -4.388594,-4.102732 -0.58086,-0.553899 -1.066233,-0.996224 -1.078606,-0.982944 -0.01237,0.01328 0.140835,0.436884 0.340464,0.941343 0.555159,1.402874 1.944383,5.117031 2.40911,6.440866 0.342698,0.976224 0.399881,1.191917 0.328111,1.237633 -0.133711,0.08517 -0.606853,0.260656 -0.629597,0.233513 -0.114322,-0.136428 -2.57321,-5.503275 -3.463951,-7.560528 -0.178401,-0.412034 -0.33216,-0.741357 -0.341687,-0.73183 -0.0095,0.0095 -0.04678,1.075817 -0.08278,2.369535 -0.06321,2.271654 -0.142265,4.380277 -0.225148,6.005715 l -0.03975,0.779618 h -0.383442 -0.38344 z"
     id="path1227" />
  <path
     style="fill:#ffffff;stroke-width:0.0108093;fill-opacity:1"
     d="m 4.400653,16.686874 c 0.015056,-0.04016 0.073841,-0.189758 0.130633,-0.33244 0.8827354,-2.217736 2.1536735,-4.294802 3.7264402,-6.090039 0.5910659,-0.6746731 1.3185168,-1.40228 1.9894668,-1.9898939 3.412728,-2.9888451 7.718808,-4.810168 12.214482,-5.1663039 1.120675,-0.088777 2.323591,-0.086913 3.377898,0.00523 0.09809,0.00857 0.186866,0.015648 0.19727,0.015721 0.01787,1.254e-4 0.01892,0.052685 0.01892,0.951349 0,0.5231689 -0.0024,0.9512162 -0.0052,0.9512162 -0.0029,0 -0.08193,-0.00721 -0.175651,-0.016018 -0.575976,-0.054142 -1.052343,-0.074501 -1.743154,-0.074501 -0.589164,0 -0.844304,0.00803 -1.34035,0.042207 -2.228733,0.1535381 -4.374511,0.6800646 -6.388332,1.567547 -1.562808,0.6887232 -3.048662,1.5997596 -4.372395,2.680891 -1.797485,1.4680576 -3.3156458,3.2406136 -4.5062935,5.2614046 -0.3664889,0.622013 -0.7279971,1.334632 -1.0236817,2.017925 l -0.105245,0.243208 -1.0110908,0.0028 -1.0110908,0.0028 z"
     id="path1962" />
</svg>
