<?xml version="1.0" encoding="UTF-8" standalone="no"?>
<!DOCTYPE svg PUBLIC "-//W3C//DTD SVG 1.1//EN" "http://www.w3.org/Graphics/SVG/1.1/DTD/svg11.dtd">
<svg width="100%" height="100%" viewBox="0 0 752 442" version="1.1" xmlns="http://www.w3.org/2000/svg" xmlns:xlink="http://www.w3.org/1999/xlink" xml:space="preserve" xmlns:serif="http://www.serif.com/" style="fill-rule:evenodd;clip-rule:evenodd;stroke-linejoin:round;stroke-miterlimit:2;">
    <g transform="matrix(1,0,0,1,-30.2234,-37.1017)">
        <g id="Artboard1" transform="matrix(0.996364,0,0,0.961749,-343.745,-213.027)">
            <rect x="345" y="221.5" width="825" height="549" style="fill-opacity:0;"/>
            <g id="Layer-1" serif:id="Layer 1" transform="matrix(1.00365,0,0,1.03977,-0.255476,-30.125)">
                <g transform="matrix(1,0,0,1,391.567,719.612)">
                    <path d="M0,-74.942L-17.344,-74.942L-17.344,0L37.578,0L37.578,-14.131L0,-14.131L0,-74.942Z" style="fill-rule:nonzero;"/>
                </g>
                <g transform="matrix(1,0,0,1,0,364.282)">
                    <rect x="438.887" y="280.388" width="17.344" height="74.942"/>
                </g>
                <g transform="matrix(1,0,0,1,465.543,705.481)">
                    <path d="M0,-46.679L23.981,-46.679L23.981,14.132L41.325,14.132L41.325,-46.679L65.307,-46.679L65.307,-60.811L0,-60.811L0,-46.679Z" style="fill-rule:nonzero;"/>
                </g>
                <g transform="matrix(1,0,0,1,532.775,705.481)">
                    <path d="M0,-46.679L23.981,-46.679L23.981,14.132L41.325,14.132L41.325,-46.679L65.307,-46.679L65.307,-60.811L0,-60.811L0,-46.679Z" style="fill-rule:nonzero;"/>
                </g>
                <g transform="matrix(1,0,0,1,624.74,719.612)">
                    <path d="M0,-74.942L-17.344,-74.942L-17.344,0L37.578,0L37.578,-14.131L0,-14.131L0,-74.942Z" style="fill-rule:nonzero;"/>
                </g>
                <g transform="matrix(1,0,0,1,689.296,675.932)">
                    <path d="M0,12.419L34.795,12.419L34.795,-1.07L0,-1.07L0,-17.344L39.398,-17.344L39.398,-31.262L-17.236,-31.262L-17.236,43.681L40.79,43.681L40.79,29.763L0,29.763L0,12.419Z" style="fill-rule:nonzero;"/>
                </g>
                <g transform="matrix(1,0,0,1,795.285,690.064)">
                    <path d="M0,-15.845L-34.045,-15.845L-34.045,-45.394L-51.389,-45.394L-51.389,29.549L-34.045,29.549L-34.045,-1.178L0,-1.178L0,29.549L17.344,29.549L17.344,-45.394L0,-45.394L0,-15.845Z" style="fill-rule:nonzero;"/>
                </g>
                <g transform="matrix(1,0,0,1,888.373,672.4)">
                    <path d="M0,19.484C-1.177,22.412 -2.837,24.944 -4.978,27.086C-7.119,29.226 -9.6,30.869 -12.419,32.01C-15.239,33.153 -18.325,33.723 -21.68,33.723C-25.035,33.723 -28.14,33.153 -30.993,32.01C-33.849,30.869 -36.33,29.226 -38.435,27.086C-40.54,24.944 -42.182,22.393 -43.359,19.43C-44.536,16.469 -45.125,13.239 -45.125,9.742C-45.125,6.173 -44.536,2.926 -43.359,-0.001C-42.182,-2.927 -40.521,-5.461 -38.381,-7.602C-36.239,-9.744 -33.761,-11.384 -30.939,-12.527C-28.121,-13.668 -25.035,-14.24 -21.68,-14.24C-18.325,-14.24 -15.221,-13.668 -12.365,-12.527C-9.511,-11.384 -7.03,-9.744 -4.924,-7.602C-2.82,-5.461 -1.177,-2.927 0,-0.001C1.178,2.926 1.767,6.173 1.767,9.742C1.767,13.311 1.178,16.558 0,19.484M7.602,-17.987C3.925,-21.484 -0.393,-24.197 -5.353,-26.123C-10.314,-28.051 -15.756,-29.014 -21.68,-29.014C-27.532,-29.014 -32.957,-28.051 -37.952,-26.123C-42.949,-24.197 -47.304,-21.484 -51.014,-17.987C-54.726,-14.49 -57.598,-10.386 -59.632,-5.675C-61.666,-0.964 -62.684,4.174 -62.684,9.742C-62.684,15.308 -61.666,20.448 -59.632,25.158C-57.598,29.869 -54.744,33.974 -51.067,37.47C-47.392,40.968 -43.038,43.679 -38.006,45.607C-32.974,47.534 -27.497,48.498 -21.572,48.498C-15.721,48.498 -10.314,47.534 -5.353,45.607C-0.393,43.679 3.925,40.986 7.602,37.524C11.277,34.062 14.149,29.959 16.22,25.212C18.289,20.465 19.325,15.308 19.325,9.742C19.325,4.104 18.289,-1.053 16.22,-5.729C14.149,-10.403 11.277,-14.49 7.602,-17.987" style="fill-rule:nonzero;"/>
                </g>
                <g transform="matrix(1,0,0,1,964.225,702.054)">
                    <path d="M0,-39.827C2.64,-37.542 3.961,-34.33 3.961,-30.191C3.961,-26.123 2.64,-22.928 0,-20.609C-2.642,-18.289 -6.638,-17.13 -11.99,-17.13L-26.122,-17.13L-26.122,-43.253L-11.99,-43.253C-6.638,-43.253 -2.642,-42.11 0,-39.827M6.316,-6.531C11.169,-8.672 14.916,-11.759 17.558,-15.792C20.197,-19.823 21.519,-24.624 21.519,-30.191C21.519,-35.829 20.197,-40.683 17.558,-44.751C14.916,-48.819 11.169,-51.941 6.316,-54.119C1.462,-56.296 -4.319,-57.385 -11.027,-57.385L-43.466,-57.385L-43.466,17.558L-26.122,17.558L-26.122,-3.319L-11.027,-3.319C-10.753,-3.319 -10.49,-3.332 -10.22,-3.335L4.175,17.558L22.911,17.558L6.167,-6.471C6.216,-6.491 6.268,-6.51 6.316,-6.531" style="fill-rule:nonzero;"/>
                </g>
                <g transform="matrix(1,0,0,1,1047.19,682.571)">
                    <path d="M0,-0.858C-2.569,-2.427 -5.406,-3.676 -8.511,-4.605C-11.616,-5.532 -14.721,-6.353 -17.825,-7.067C-20.931,-7.78 -23.768,-8.495 -26.337,-9.209C-28.906,-9.921 -30.978,-10.868 -32.546,-12.046C-34.117,-13.223 -34.901,-14.776 -34.901,-16.703C-34.901,-18.344 -34.438,-19.79 -33.51,-21.039C-32.583,-22.287 -31.048,-23.303 -28.906,-24.09C-26.765,-24.875 -24.019,-25.267 -20.662,-25.267C-17.309,-25.267 -13.883,-24.786 -10.385,-23.822C-6.889,-22.859 -3.391,-21.377 0.107,-19.379L5.46,-32.547C1.962,-34.759 -2.071,-36.419 -6.638,-37.526C-11.206,-38.631 -15.845,-39.185 -20.556,-39.185C-27.621,-39.185 -33.493,-38.131 -38.167,-36.027C-42.843,-33.921 -46.34,-31.102 -48.659,-27.57C-50.979,-24.037 -52.139,-20.129 -52.139,-15.846C-52.139,-11.848 -51.335,-8.566 -49.729,-5.997C-48.123,-3.427 -46.036,-1.356 -43.467,0.212C-40.896,1.784 -38.06,3.068 -34.955,4.067C-31.851,5.067 -28.745,5.906 -25.641,6.582C-22.536,7.262 -19.699,7.975 -17.13,8.724C-14.561,9.473 -12.491,10.437 -10.92,11.615C-9.351,12.792 -8.564,14.381 -8.564,16.378C-8.564,17.95 -9.064,19.341 -10.063,20.554C-11.063,21.769 -12.616,22.713 -14.721,23.391C-16.827,24.071 -19.592,24.409 -23.018,24.409C-27.515,24.409 -31.957,23.677 -36.347,22.213C-40.736,20.751 -44.537,18.878 -47.749,16.593L-53.637,29.655C-50.283,32.224 -45.858,34.311 -40.361,35.917C-34.866,37.523 -29.12,38.327 -23.125,38.327C-15.988,38.327 -10.082,37.255 -5.406,35.115C-0.732,32.973 2.783,30.155 5.139,26.657C7.494,23.161 8.672,19.306 8.672,15.094C8.672,11.169 7.869,7.921 6.263,5.352C4.657,2.783 2.569,0.713 0,-0.858" style="fill-rule:nonzero;"/>
                </g>
                <g transform="matrix(1,0,0,1,1084.99,658.588)">
                    <path d="M0,47.106L0,29.762L34.794,29.762L34.794,16.273L0,16.273L0,0L39.397,0L39.397,-13.918L-17.237,-13.918L-17.237,61.024L40.79,61.024L40.79,47.106L0,47.106Z" style="fill-rule:nonzero;"/>
                </g>
                <g transform="matrix(1,0,0,1,903.727,579.598)">
                    <path d="M0,-240.926C3.496,-239.613 3.601,-236.617 3.075,-232.842C0.722,-234.058 -1.707,-234.833 -3.419,-236.394C-4.307,-237.204 -3.923,-239.407 -4.113,-240.981C-2.733,-240.987 -1.208,-241.38 0,-240.926M17.255,-191.691C17.968,-193.142 19.451,-194.267 20.778,-195.297C20.948,-195.428 22.65,-194.25 22.953,-193.426C24.093,-190.323 21.585,-188.821 19.729,-186.852C17.011,-188.647 16.28,-189.707 17.255,-191.691M-133.088,47.97C-135.466,44.041 -137.503,40.274 -139.929,36.777C-142.32,33.329 -144.984,30.048 -147.766,26.902C-149.191,25.291 -151.115,24.11 -152.85,22.783C-156.573,19.935 -160.305,17.098 -164.062,14.295C-166.929,12.154 -169.741,9.917 -172.749,7.992C-183.106,1.365 -193.852,-4.704 -203.845,-11.833C-212.059,-17.693 -218.276,-25.589 -219.587,-36.117C-220.506,-43.5 -219.687,-50.857 -218.414,-58.219C-217.089,-65.876 -215.726,-73.661 -215.742,-81.388C-215.774,-96.052 -221.463,-108.328 -234.22,-116.402C-237.702,-118.606 -241.899,-119.672 -245.746,-121.313C-248.336,-122.418 -250.886,-123.616 -253.287,-125.218C-242.895,-128.089 -233.53,-125.727 -224.104,-119.86C-216.405,-114.886 -211.923,-103.02 -211.923,-103.02C-210.279,-97.063 -208.797,-91.691 -207.33,-86.37L-207.33,-82.12C-208.805,-71.627 -210.088,-61.106 -211.722,-50.639C-214.066,-35.618 -209.076,-23.769 -196.43,-15.502C-185.965,-8.661 -175.173,-2.315 -164.447,4.117C-162.244,5.437 -159.722,6.263 -157.285,7.143C-154.892,8.009 -153.943,6.622 -154.502,4.562C-155.229,1.886 -156.352,-0.697 -157.462,-3.25C-160.613,-10.493 -165.666,-15.402 -173.501,-17.788C-183.542,-20.847 -192.418,-26.342 -200.933,-32.452C-205.715,-35.883 -207.859,-40.027 -206.117,-45.855C-203.854,-53.421 -201.638,-61.002 -199.385,-68.572C-198.386,-71.926 -197.281,-75.249 -196.36,-78.623C-196.037,-79.811 -196.12,-81.111 -195.982,-82.789C-190.359,-80.962 -184.814,-78.935 -179.144,-77.357C-155.455,-70.765 -131.683,-70.842 -107.901,-76.894C-105.583,-77.484 -103.349,-78.408 -101.085,-79.206C-99.303,-79.834 -98.742,-80.805 -99.927,-82.583C-100.919,-84.071 -101.728,-85.703 -102.439,-87.348C-103.107,-88.893 -103.543,-90.538 -104.065,-92.095C-101.997,-119.483 -62.204,-115.527 -62.204,-115.527C-57.908,-112.26 -53.894,-109.207 -49.583,-105.928C-40.993,-111.883 -36.011,-120.466 -34.599,-131.244C-32.852,-144.581 -34.984,-157.408 -39.99,-169.76C-45.94,-184.444 -47.585,-199.315 -42.869,-214.65C-42.656,-215.343 -42.63,-216.292 -42.936,-216.916C-48.23,-227.694 -47.867,-238.322 -42.256,-248.855C-42.167,-249.021 -42.174,-249.238 -42.002,-250.111C-43.656,-249.191 -45.072,-248.63 -46.223,-247.729C-55.044,-240.819 -60.258,-231.672 -62.276,-220.758C-66.038,-201.134 -60.254,-178.94 -56.53,-167.588L-59.441,-170.537C-59.824,-171.619 -60.166,-172.718 -60.607,-173.775C-61.107,-174.974 -61.709,-176.132 -62.255,-177.312C-67.32,-188.259 -70.633,-199.687 -70.023,-211.822C-69.382,-224.618 -65.905,-236.71 -56.548,-245.94C-52.312,-250.118 -46.865,-253.36 -41.46,-255.977C-37.048,-258.113 -31.889,-258.72 -27.042,-259.931C-26.09,-260.169 -25.03,-260.217 -24.063,-260.07C-23.376,-259.965 -22.763,-259.383 -22.116,-259.014C-22.533,-258.425 -22.903,-257.793 -23.387,-257.265C-23.638,-256.99 -24.089,-256.899 -24.45,-256.726C-35.806,-251.288 -42.241,-238.801 -38.688,-226.841C-36.162,-218.343 -31.129,-211.23 -21.935,-208.181C-20.162,-207.594 -18.538,-206.213 -17.152,-204.88C-13.621,-201.481 -10.285,-197.88 -6.83,-194.401C-4.025,-191.577 -2.688,-188.172 -2.239,-184.249C-1.356,-176.549 5.056,-172.833 12.27,-175.573C13.279,-175.957 14.611,-175.706 15.75,-175.502C20.223,-174.7 22.989,-176 25.04,-180.137C26.462,-183.005 27.708,-185.96 29.14,-188.823C30.735,-192.012 29.99,-194.946 28.695,-198.034C23.936,-209.382 19.231,-220.755 14.704,-232.197C13.689,-234.76 13.662,-237.698 12.843,-240.361C11.917,-243.367 11.099,-246.59 9.365,-249.125C6.269,-253.654 2.575,-257.785 -0.975,-261.993C-4.039,-265.627 -4.444,-267.208 -1.98,-271.438C1.723,-277.799 3.131,-284.582 2.672,-292.497C-3.636,-290.009 -8.523,-286.506 -12.555,-281.588C-16.819,-276.386 -16.814,-270.443 -15.926,-264.119C-19.58,-266.022 -21.378,-269.626 -21.818,-275.69C-29.897,-276.913 -38.077,-277.218 -46.139,-275.576C-65.063,-271.722 -80.349,-261.726 -93.17,-247.44C-102.734,-236.783 -109.173,-224.259 -115.792,-211.794C-117.858,-207.905 -119.978,-204.044 -122.053,-200.159C-122.512,-199.301 -122.887,-198.397 -123.524,-197.033L-133.469,-188.402C-134.665,-187.549 -135.771,-186.727 -136.835,-185.944C-167.2,-166.623 -204.855,-171.947 -204.855,-171.947L-204.857,-171.946C-221.324,-174.406 -237.097,-178.587 -253.348,-174.388C-277.805,-168.069 -293.007,-152.846 -298.677,-128.011C-302.08,-113.107 -296.873,-100.82 -288.56,-89.051C-282.612,-80.632 -274.202,-75.019 -265.976,-69.503C-251.383,-59.718 -245.636,-45.953 -245.113,-29.195C-245.069,-27.793 -244.985,-26.382 -245.093,-24.989C-245.622,-18.154 -242.076,-13.797 -236.388,-10.891C-231.579,-8.432 -226.366,-6.663 -221.816,-3.817C-212.069,2.279 -202.519,8.711 -193.148,15.37C-190.471,17.272 -188.455,20.273 -186.562,23.059C-184.947,25.435 -183.087,26.458 -180.312,26.066C-178.432,25.801 -176.545,25.544 -174.652,25.415C-170.213,25.11 -168.012,28.282 -170.186,32.131C-171.438,34.349 -171.055,35.989 -169.725,37.885C-167.429,41.155 -165.256,44.513 -163.085,47.869C-161.685,50.035 -159.844,51.326 -157.188,51.386C-149.168,51.571 -141.215,51.34 -133.088,47.97" style="fill-rule:nonzero;"/>
                </g>
                <g transform="matrix(1,0,0,1,596.705,585.125)">
                    <path d="M0,-163.359C-23.743,-165.181 -43.879,-157.692 -58.229,-138.34C-71.233,-120.804 -74.377,-101.392 -65.266,-80.842C-64.387,-78.861 -63.064,-77.077 -61.948,-75.202C-61.573,-75.332 -61.198,-75.461 -60.823,-75.59C-60.823,-77.421 -60.873,-79.252 -60.814,-81.079C-60.597,-87.868 -60.769,-94.705 -59.972,-101.427C-59.303,-107.072 -56.908,-112.331 -53.343,-117.554C-56.205,-100.937 -52.307,-85.358 -50.338,-69.623C-48.405,-54.161 -48.42,-38.779 -55.346,-24.272C-57.314,-20.15 -59.761,-16.256 -61.989,-12.258C-42.607,-23.089 -31.261,-38.659 -32.68,-61.926C-19.766,-42.243 -15.36,-21.325 -22.88,1.822C-21.461,0.142 -19.9,-1.437 -18.646,-3.232C-9.425,-16.426 -6.898,-31.268 -8.069,-46.982C-9.16,-61.626 -16.108,-73.845 -24.123,-85.618C-24.571,-86.277 -25.011,-86.945 -25.392,-87.643C-25.508,-87.856 -25.41,-88.184 -25.41,-89.257C-18.926,-85.034 -13.333,-79.923 -4.817,-78.615C-5.843,-80.877 -6.397,-82.642 -7.368,-84.137C-10.367,-88.755 -13.716,-93.155 -16.576,-97.854C-21.004,-105.13 -23.185,-113.123 -22.359,-121.653C-21.758,-127.853 -19.015,-133.214 -14.055,-137.132C-9.175,-140.986 -4.11,-144.573 2.483,-144.928C3.158,-144.965 4.051,-145.714 4.394,-146.368C6.937,-151.226 9.366,-156.142 12.021,-161.421C8.196,-162.054 4.124,-163.043 0,-163.359" style="fill-rule:nonzero;"/>
                </g>
                <g transform="matrix(1,0,0,1,750.536,307.54)">
                    <path d="M0,51.141C-9.381,53.174 -18.623,52.874 -27.725,48.406C-26.883,49.54 -26.148,50.777 -25.181,51.791C-19.186,58.077 -11.401,59.944 -3.142,60.488C4.925,61.018 12.566,59.424 19.712,55.314C19.563,63.718 2.744,74.061 -13.149,75.779C-13.232,76.045 -13.315,76.31 -13.399,76.575C-11.045,77.225 -8.728,78.224 -6.333,78.471C9.867,80.134 21.85,73.637 29.399,59.085C35.161,47.981 40.606,36.726 48.343,26.758C61.47,9.846 77.628,-2.764 98.384,-8.826C109.178,-11.979 120.251,-12.878 131.359,-10.837C134.171,-10.32 134.71,-12.212 135.582,-13.58C135.91,-14.096 134.842,-16.032 133.947,-16.718C122.162,-25.75 108.71,-28.993 94.097,-27.588C88.432,-27.043 82.834,-25.82 77.18,-25.121C70.04,-24.239 63.001,-24.567 56.35,-27.757C55.938,-27.954 55.481,-28.055 54.336,-28.438C57.755,-22.143 63.435,-20.135 68.779,-17.225C65.234,-16.694 61.686,-16.188 58.146,-15.628C51.923,-14.643 45.722,-13.519 39.483,-12.655C34.221,-11.926 29.099,-12.662 24.239,-14.923C23.883,-15.089 23.481,-15.175 23.092,-15.242C22.919,-15.273 22.723,-15.165 21.896,-14.963C29.088,-7.829 37.221,-3.956 47.746,-4.022C33.874,2.185 20.872,8.55 5.794,7.719C-1.562,7.313 -8.043,4.842 -14.017,0.73C-14.592,0.335 -15.118,-0.131 -15.689,-0.531C-15.832,-0.63 -16.066,-0.597 -16.985,-0.728C-16.448,0.744 -16.181,2.013 -15.564,3.08C-9.762,13.11 -0.548,17.891 10.544,18.935C16.621,19.508 22.818,18.796 28.979,18.663C21.571,24.556 12.977,28.557 3.303,29.728C-6.461,30.91 -15.856,29.378 -24.266,23.621L-24.92,24.135C-24.504,25.205 -24.259,26.386 -23.646,27.327C-18.442,35.302 -10.644,39.002 -1.529,40.017C6.975,40.964 15.428,40.485 23.598,37.315C17.561,45.036 9.323,49.12 0,51.141" style="fill-rule:nonzero;"/>
                </g>
                <g transform="matrix(1,0,0,1,834.309,471.356)">
                    <path d="M0,100.039C2.589,97.029 5.858,95.718 9.578,95.985C15.859,96.435 19.84,94.007 21.983,87.989C22.794,85.711 24.534,83.689 26.123,81.777C31.048,75.849 35.932,69.87 41.185,64.24C43.518,61.738 46.509,59.684 49.533,58.032C54.188,55.49 57.062,52.035 56.835,46.621C56.588,40.711 55.325,35.344 49.09,32.534C40.24,28.547 32.8,22.423 25.409,16.27C21.257,12.812 17.116,9.339 13.023,5.811C8.436,1.856 3.004,-0.429 -2.729,-1.948C-9.834,-3.83 -20.798,-0.124 -24.463,5.265C-29.527,12.712 -28.363,18.664 -21.439,26.948C-17.203,32.018 -11.007,33.906 -4.937,35.613C4.109,38.158 13.345,40.063 22.305,42.863C26.503,44.175 29.803,45.166 32.145,40.394C32.383,39.907 33.019,39.592 33.513,39.261C33.804,39.065 34.179,38.996 33.99,39.067C33.035,43.432 32.275,48.016 30.964,52.436C30.306,54.656 28.895,56.785 27.391,58.596C23.874,62.828 20.112,66.858 16.419,70.942C14.192,73.405 11.521,75.168 8.082,75.044C5.602,74.955 4.746,76.334 4.293,78.367C4.054,79.439 3.944,80.575 3.502,81.559C3.099,82.456 2.365,83.81 1.706,83.853C0.566,83.927 -1.148,83.49 -1.713,82.654C-4.432,78.63 -8.993,77.896 -12.892,76.041C-14.591,75.232 -15.986,76.032 -17.005,77.883C-21.082,85.293 -22.582,93.226 -22.359,101.59C-22.312,103.334 -21.57,103.869 -19.937,103.71C-14.661,103.195 -9.363,102.857 -4.109,102.171C-2.65,101.98 -0.946,101.139 0,100.039" style="fill-rule:nonzero;"/>
                </g>
                <g transform="matrix(1,0,0,1,923.268,480.321)">
                    <path d="M0,63.489C4.265,59.838 5.289,55.76 3.738,50.136C0.312,37.711 0.1,24.825 -0.219,12.017C-0.283,9.45 0.28,6.84 0.774,4.292C2.689,-5.579 -0.605,-10.759 -10.165,-13.825C-21.292,-17.395 -32.297,-21.347 -43.336,-25.186C-44.813,-25.699 -46.185,-26.518 -47.12,-26.964C-49.157,-22.176 -50.589,-17.427 -53.088,-13.329C-55.597,-9.216 -59.17,-5.751 -62.333,-1.934C-58.037,1.617 -52.729,1.193 -47.832,1.923C-41.021,2.937 -34.126,3.386 -27.238,4.08C-25.55,1.421 -23.748,-1.413 -21.947,-4.248C-21.704,-4.096 -21.461,-3.945 -21.218,-3.792C-21.376,-1.546 -21.966,0.777 -21.585,2.927C-21.096,5.691 -20.277,8.604 -18.792,10.938C-16.204,15.006 -15.464,19.491 -14.839,24.02C-13.979,30.254 -13.417,36.53 -12.782,42.794C-12.43,46.273 -13.388,49.366 -15.996,51.777C-17.611,53.269 -17.463,54.649 -16.143,56.183C-15.623,56.788 -15.01,57.428 -14.807,58.154C-14.586,58.948 -14.454,60.229 -14.894,60.63C-15.489,61.173 -16.997,61.557 -17.534,61.181C-20.154,59.348 -22.703,60.275 -25.301,60.968C-26.072,61.175 -26.827,61.446 -27.592,61.678C-32.589,63.201 -32.907,63.273 -31.724,68.389C-30.29,74.589 -28.533,80.75 -26.368,86.729C-25.065,90.329 -23.867,90.453 -20.75,88.194C-17.269,85.671 -13.824,83.048 -10.679,80.129C-9.072,78.638 -7.712,76.554 -7.015,74.479C-5.569,70.175 -3.43,66.427 0,63.489" style="fill-rule:nonzero;"/>
                </g>
            </g>
        </g>
        <g id="Layer1">
        </g>
    </g>
</svg>
